<svg width="299" height="100" viewBox="0 0 299 100" fill="none" xmlns="http://www.w3.org/2000/svg">
<path d="M48.8438 34.863C48.9062 34.9724 48.9375 35.1052 48.9375 35.2615C48.9375 35.4958 48.8516 35.699 48.6797 35.8708C48.5234 36.0427 48.3125 36.1287 48.0469 36.1287C47.875 36.1287 47.7188 36.0896 47.5781 36.0115C47.4531 35.9333 47.3516 35.8162 47.2734 35.6599C46.9766 35.0818 46.7109 34.363 46.4766 33.5037C46.2578 32.6287 46.0625 31.6599 45.8906 30.5974C45.7344 29.5349 45.6016 28.3943 45.4922 27.1755C45.3984 25.9412 45.3203 24.6677 45.2578 23.3552C44.0859 23.5115 42.7656 23.6833 41.2969 23.8708C39.8438 24.0583 38.1797 24.2771 36.3047 24.5271C34.9922 24.7146 33.6562 24.8787 32.2969 25.0193C28.9531 28.6599 25.4297 31.4255 21.7266 33.3162C18.0391 35.1912 14.3359 36.1287 10.6172 36.1287C8.96094 36.1287 7.52344 35.9646 6.30469 35.6365C5.10156 35.324 4.10156 34.9724 3.30469 34.5818C2.52344 34.1755 1.9375 33.8005 1.54688 33.4568C1.14062 33.113 0.921875 32.9255 0.890625 32.8943C0.734375 32.738 0.65625 32.5349 0.65625 32.2849C0.65625 32.0349 0.742188 31.824 0.914062 31.6521C1.08594 31.4802 1.28906 31.3943 1.52344 31.3943C1.78906 31.3943 2.00781 31.488 2.17969 31.6755C2.21094 31.7068 2.39844 31.8708 2.74219 32.1677C3.08594 32.449 3.59375 32.7537 4.26562 33.0818C4.95312 33.4099 5.82031 33.7068 6.86719 33.9724C7.91406 34.238 9.15625 34.3708 10.5938 34.3708C12.5625 34.3708 14.4453 34.1052 16.2422 33.574C18.0391 33.0427 19.7344 32.3552 21.3281 31.5115C22.9375 30.6521 24.4297 29.6755 25.8047 28.5818C27.1953 27.488 28.4531 26.3787 29.5781 25.2537C28.4688 25.3474 27.3672 25.4177 26.2734 25.4646C25.1797 25.5115 24.1016 25.5349 23.0391 25.5349C20.9453 25.5349 18.9531 25.4177 17.0625 25.1833C15.1719 24.949 13.5078 24.5583 12.0703 24.0115C10.6328 23.449 9.48438 22.7068 8.625 21.7849C7.78125 20.863 7.35938 19.7146 7.35938 18.3396C7.35938 17.7146 7.48438 17.0896 7.73438 16.4646C8 15.8396 8.3125 15.2771 8.67188 14.7771C9.03125 14.2615 9.40625 13.8474 9.79688 13.5349C10.1875 13.2068 10.5234 13.0427 10.8047 13.0427C11.0234 13.0427 11.2266 13.1208 11.4141 13.2771C11.6016 13.4333 11.6953 13.6443 11.6953 13.9099C11.6953 14.0505 11.6641 14.1912 11.6016 14.3318C11.5391 14.4568 11.4453 14.5583 11.3203 14.6365C11.2891 14.6677 11.1562 14.7771 10.9219 14.9646C10.6875 15.1521 10.4375 15.4099 10.1719 15.738C9.90625 16.0505 9.66406 16.4333 9.44531 16.8865C9.22656 17.324 9.11719 17.8005 9.11719 18.3162C9.11719 19.2068 9.42188 19.9958 10.0312 20.6833C10.6562 21.3552 11.5547 21.9255 12.7266 22.3943C13.9141 22.8474 15.3672 23.1912 17.0859 23.4255C18.8047 23.6599 20.7656 23.7771 22.9688 23.7771C24.2344 23.7771 25.5703 23.738 26.9766 23.6599C28.3828 23.5818 29.8672 23.4646 31.4297 23.3083C32.1797 22.4802 32.8438 21.699 33.4219 20.9646C34 20.2302 34.4922 19.574 34.8984 18.9958C35.5703 18.0427 36.2734 17.0271 37.0078 15.949C37.7422 14.8708 38.4688 13.7771 39.1875 12.6677C39.9219 11.5583 40.6328 10.4646 41.3203 9.38647C42.0234 8.29272 42.6797 7.26929 43.2891 6.31616C43.8984 5.34741 44.4453 4.47241 44.9297 3.69116C45.4141 2.89429 45.8125 2.23804 46.125 1.72241C46.2188 1.30054 46.3594 0.917725 46.5469 0.573975C46.7344 0.2146 47.0391 0.0349121 47.4609 0.0349121C47.6953 0.0349121 47.9219 0.136475 48.1406 0.3396C48.3594 0.5271 48.4688 0.769287 48.4688 1.06616C48.4688 1.28491 48.3906 1.51929 48.2344 1.76929C48.0781 2.01929 47.9297 2.23022 47.7891 2.4021C47.7422 2.69897 47.6641 3.33179 47.5547 4.30054C47.4609 5.26929 47.3594 6.45679 47.25 7.86304C47.1562 9.25366 47.0703 10.7927 46.9922 12.4802C46.9297 14.1521 46.8984 15.8474 46.8984 17.5662C46.8984 18.2068 46.8984 18.8396 46.8984 19.4646C46.8984 20.0896 46.9141 20.7224 46.9453 21.363C49.2891 21.0662 51 20.863 52.0781 20.7537C53.1562 20.6287 53.7266 20.5662 53.7891 20.5662C53.9922 20.5662 54.1875 20.6521 54.375 20.824C54.5781 20.9802 54.6797 21.1912 54.6797 21.4568C54.6797 21.6755 54.6016 21.8708 54.4453 22.0427C54.3047 22.199 54.1172 22.2927 53.8828 22.324C53.6016 22.3552 53.2734 22.3943 52.8984 22.4412C52.5234 22.488 52.0625 22.5427 51.5156 22.6052C50.9688 22.6677 50.3281 22.7458 49.5938 22.8396C48.8594 22.9177 48 23.0193 47.0156 23.1443C47.0625 24.4255 47.1328 25.6599 47.2266 26.8474C47.3359 28.0193 47.4609 29.113 47.6016 30.1287C47.7578 31.1443 47.9375 32.0583 48.1406 32.8708C48.3438 33.6833 48.5781 34.3474 48.8438 34.863ZM36.0703 22.7693C37.9141 22.5193 39.5859 22.3005 41.0859 22.113C42.6016 21.9099 43.9688 21.7302 45.1875 21.574C45.1719 20.9021 45.1562 20.2302 45.1406 19.5583C45.1406 18.8865 45.1406 18.2068 45.1406 17.5193C45.1406 15.3162 45.1797 13.2146 45.2578 11.2146C45.3359 9.19897 45.4453 7.44897 45.5859 5.9646C44.9609 6.94897 44.2656 8.04272 43.5 9.24585C42.75 10.4333 41.9688 11.6521 41.1562 12.9021C40.3438 14.1365 39.5234 15.363 38.6953 16.5818C37.8672 17.8005 37.0781 18.9412 36.3281 20.0037C35.9531 20.5349 35.5703 21.0505 35.1797 21.5505C34.7891 22.0505 34.3984 22.5427 34.0078 23.0271C34.3516 22.9958 34.6875 22.9568 35.0156 22.9099C35.3594 22.863 35.7109 22.8162 36.0703 22.7693ZM45.1875 81.1599C45.1719 81.1912 45.0781 81.324 44.9062 81.5583C44.7344 81.7927 44.4844 82.0818 44.1562 82.4255C43.8438 82.7537 43.4453 83.113 42.9609 83.5037C42.4922 83.8787 41.9297 84.2302 41.2734 84.5583C40.6328 84.8708 39.9062 85.1365 39.0938 85.3552C38.2812 85.574 37.3828 85.6833 36.3984 85.6833C34.8672 85.6833 33.4297 85.488 32.0859 85.0974C30.7422 84.7224 29.4453 84.238 28.1953 83.6443C26.9609 83.0505 25.7422 82.3943 24.5391 81.6755C23.3359 80.9568 22.1094 80.2537 20.8594 79.5662C20.0938 80.8474 19.2109 81.8943 18.2109 82.7068C17.2266 83.5037 16.1953 84.1287 15.1172 84.5818C14.0547 85.0349 12.9922 85.3396 11.9297 85.4958C10.8828 85.6677 9.91406 85.7537 9.02344 85.7537C8.16406 85.7537 7.28906 85.6599 6.39844 85.4724C5.52344 85.3005 4.72656 85.0115 4.00781 84.6052C3.30469 84.1833 2.72656 83.6365 2.27344 82.9646C1.82031 82.2927 1.59375 81.4568 1.59375 80.4568C1.59375 79.5193 1.8125 78.6755 2.25 77.9255C2.67188 77.1599 3.25781 76.5115 4.00781 75.9802C4.77344 75.449 5.67188 75.0427 6.70312 74.7615C7.73438 74.4646 8.84375 74.3162 10.0312 74.3162C10.9219 74.3162 11.8047 74.3943 12.6797 74.5505C13.5703 74.7068 14.4375 74.9177 15.2812 75.1833C16.125 75.449 16.9453 75.7537 17.7422 76.0974C18.5391 76.4255 19.2891 76.7615 19.9922 77.1052C20.0859 76.824 20.1641 76.5427 20.2266 76.2615C20.3047 75.9802 20.3672 75.6755 20.4141 75.3474C20.4766 75.0037 20.5156 74.6287 20.5312 74.2224C20.5625 73.8005 20.5781 73.3162 20.5781 72.7693C20.5781 72.2537 20.5625 71.7615 20.5312 71.2927C20.5156 70.824 20.4922 70.3162 20.4609 69.7693C20.4453 69.2068 20.4219 68.5818 20.3906 67.8943C20.375 67.1912 20.3672 66.3552 20.3672 65.3865C20.3672 63.1521 20.5859 61.1208 21.0234 59.2927C21.4609 57.449 22.1094 55.8708 22.9688 54.5583C23.8281 53.2458 24.8984 52.2302 26.1797 51.5115C27.4609 50.7771 28.9531 50.4099 30.6562 50.4099C31.6875 50.4099 32.6641 50.574 33.5859 50.9021C34.5234 51.2302 35.3438 51.699 36.0469 52.3083C36.7656 52.9177 37.3281 53.6443 37.7344 54.488C38.1562 55.3318 38.3672 56.2693 38.3672 57.3005C38.3672 57.863 38.2891 58.449 38.1328 59.0583C37.9766 59.6677 37.7578 60.2302 37.4766 60.7458C37.2109 61.2458 36.8984 61.6599 36.5391 61.988C36.1953 62.3162 35.8281 62.4802 35.4375 62.4802C35.2188 62.4802 35.0234 62.4177 34.8516 62.2927C34.6797 62.1677 34.5938 61.9724 34.5938 61.7068C34.5938 61.5193 34.6328 61.363 34.7109 61.238C34.8047 61.0974 34.9141 60.9724 35.0391 60.863C35.4922 60.4568 35.8594 59.9568 36.1406 59.363C36.4375 58.7693 36.5859 58.0818 36.5859 57.3005C36.5859 56.5193 36.4219 55.8162 36.0938 55.1912C35.7812 54.5505 35.3516 54.0115 34.8047 53.574C34.2734 53.1208 33.6484 52.7771 32.9297 52.5427C32.2266 52.2927 31.4844 52.1677 30.7031 52.1677C29.2344 52.1677 27.9609 52.488 26.8828 53.1287C25.8047 53.7693 24.9141 54.6755 24.2109 55.8474C23.5078 57.0037 22.9844 58.4099 22.6406 60.0662C22.3125 61.7068 22.1484 63.5349 22.1484 65.5505C22.1484 66.5193 22.1562 67.3708 22.1719 68.1052C22.2031 68.8396 22.2266 69.5115 22.2422 70.1208C22.2734 70.7302 22.2969 71.3083 22.3125 71.8552C22.3438 72.3865 22.3594 72.9333 22.3594 73.4958C22.3594 73.824 22.3438 74.1833 22.3125 74.574C22.2812 74.949 22.2344 75.3396 22.1719 75.7458C22.1094 76.1365 22.0234 76.5271 21.9141 76.9177C21.8203 77.2927 21.7109 77.6365 21.5859 77.949C22.7734 78.574 23.9453 79.238 25.1016 79.9412C26.2578 80.6443 27.4297 81.2927 28.6172 81.8865C29.8203 82.4646 31.0547 82.949 32.3203 83.3396C33.6016 83.7146 34.9531 83.9021 36.375 83.9021C37.625 83.9021 38.7031 83.7146 39.6094 83.3396C40.5312 82.9646 41.2891 82.5505 41.8828 82.0974C42.4922 81.6287 42.9453 81.2068 43.2422 80.8318C43.5391 80.4412 43.6875 80.238 43.6875 80.2224C43.8594 79.9412 44.1094 79.8005 44.4375 79.8005C44.7031 79.8005 44.9141 79.8943 45.0703 80.0818C45.2422 80.2693 45.3281 80.4724 45.3281 80.6912C45.3281 80.863 45.2812 81.0193 45.1875 81.1599ZM19.3125 78.699C18.6406 78.3708 17.9297 78.0505 17.1797 77.738C16.4453 77.4099 15.6875 77.1208 14.9062 76.8708C14.125 76.6208 13.3203 76.4255 12.4922 76.2849C11.6797 76.1287 10.8672 76.0505 10.0547 76.0505C9.13281 76.0505 8.26562 76.1521 7.45312 76.3552C6.64062 76.5427 5.92969 76.824 5.32031 77.199C4.71094 77.574 4.22656 78.0271 3.86719 78.5583C3.52344 79.0896 3.35156 79.6912 3.35156 80.363C3.35156 80.988 3.50781 81.5349 3.82031 82.0037C4.13281 82.4568 4.54688 82.8396 5.0625 83.1521C5.59375 83.449 6.20312 83.6755 6.89062 83.8318C7.57812 83.9724 8.29688 84.0427 9.04688 84.0427C9.95312 84.0427 10.8906 83.9724 11.8594 83.8318C12.8281 83.6755 13.7656 83.4021 14.6719 83.0115C15.5781 82.6052 16.4297 82.0583 17.2266 81.3708C18.0234 80.6677 18.7188 79.7771 19.3125 78.699Z" fill="black"/>
<path d="M76.6974 12.2302V87.7698" stroke="#99B8A5" stroke-width="20" stroke-linecap="round" stroke-dasharray="40 40"/>
<path d="M101.473 37L114.097 6.424L116.833 7.624L105.313 37H101.473ZM125.857 37L113.617 5.944L117.409 4.648L130.705 37H125.857ZM108.433 27.352V24.424H122.401V27.352H108.433ZM99.0254 37L98.7374 35.464C99.4734 35.112 100.241 34.808 101.041 34.552C101.873 34.264 102.689 34.008 103.489 33.784L103.537 37H99.0254ZM104.689 37L104.833 33.976L111.457 34.744L111.409 37H104.689ZM120.193 37L119.905 35.464C120.641 35.112 121.409 34.808 122.209 34.552C123.041 34.264 123.857 34.008 124.657 33.784L127.201 37H120.193ZM126.337 37L126.481 33.976L133.105 34.744L133.057 37H126.337ZM137.186 37V5.8H141.65V37H137.186ZM133.394 37L133.106 35.464C133.842 35.112 134.61 34.808 135.41 34.552C136.242 34.264 137.058 34.008 137.858 33.784L137.906 37H133.394ZM136.898 37L140.498 33.832L155.906 33.208L156.722 37H136.898ZM156.722 37L152.978 35.08L154.61 27.256L157.298 27.448C157.33 28.44 157.314 29.528 157.25 30.712C157.218 31.896 157.154 33.048 157.058 34.168C156.994 35.288 156.882 36.232 156.722 37ZM140.114 8.824L133.49 8.056L133.538 5.8H140.258L140.114 8.824ZM140.978 9.016L140.93 5.8H145.442L145.73 7.336C145.026 7.656 144.258 7.96 143.426 8.248C142.594 8.504 141.778 8.76 140.978 9.016ZM173.982 37.864C171.358 37.864 169.038 37.32 167.022 36.232C165.038 35.112 163.486 33.48 162.366 31.336C161.246 29.192 160.686 26.552 160.686 23.416V5.8H165.15V23.896C165.15 26.104 165.502 27.976 166.206 29.512C166.91 31.048 167.934 32.232 169.278 33.064C170.654 33.864 172.286 34.264 174.174 34.264C175.102 34.264 175.918 34.184 176.622 34.024C177.358 33.832 178.062 33.592 178.734 33.304C179.79 32.568 180.59 31.416 181.134 29.848C181.71 28.248 181.998 26.264 181.998 23.896V5.8H185.55V22.936C185.55 25.56 185.294 27.832 184.782 29.752C184.27 31.64 183.518 33.176 182.526 34.36C181.534 35.544 180.318 36.424 178.878 37C177.438 37.576 175.806 37.864 173.982 37.864ZM163.614 8.824L156.99 8.056L157.038 5.8H163.758L163.614 8.824ZM164.478 9.016L164.43 5.8H168.942L169.23 7.336C168.526 7.656 167.758 7.96 166.926 8.248C166.094 8.504 165.278 8.76 164.478 9.016ZM184.35 8.824L177.726 8.056L177.774 5.8H184.494L184.35 8.824ZM184.878 9.016L184.83 5.8H189.342L189.63 7.336C188.926 7.656 188.158 7.96 187.326 8.248C186.494 8.504 185.678 8.76 184.878 9.016ZM205.911 37.96C204.055 37.96 202.247 37.624 200.487 36.952C198.727 36.28 197.127 35.272 195.687 33.928C194.279 32.552 193.159 30.84 192.327 28.792C191.495 26.744 191.079 24.344 191.079 21.592C191.079 18.232 191.703 15.304 192.951 12.808C194.231 10.28 195.959 8.328 198.135 6.952C200.311 5.544 202.775 4.84 205.527 4.84C207.511 4.84 209.383 5.208 211.143 5.944C212.935 6.68 214.535 7.768 215.943 9.208C217.351 10.648 218.455 12.424 219.255 14.536C220.055 16.648 220.455 19.064 220.455 21.784C220.455 24.536 220.039 26.936 219.207 28.984C218.407 31 217.303 32.68 215.895 34.024C214.519 35.336 212.967 36.328 211.239 37C209.511 37.64 207.735 37.96 205.911 37.96ZM206.775 34.552C207.351 34.552 207.943 34.52 208.551 34.456C209.159 34.36 209.799 34.232 210.471 34.072C211.975 33.112 213.191 31.56 214.119 29.416C215.047 27.24 215.511 24.776 215.511 22.024C215.511 20.264 215.303 18.568 214.887 16.936C214.471 15.272 213.831 13.784 212.967 12.472C212.103 11.16 210.999 10.12 209.655 9.352C208.343 8.552 206.775 8.152 204.951 8.152C204.247 8.152 203.511 8.216 202.743 8.344C201.975 8.472 201.175 8.68 200.343 8.968C199.479 9.64 198.711 10.6 198.039 11.848C197.399 13.064 196.887 14.456 196.503 16.024C196.151 17.592 195.975 19.224 195.975 20.92C195.975 22.616 196.183 24.28 196.599 25.912C197.015 27.544 197.655 29.016 198.519 30.328C199.383 31.608 200.487 32.632 201.831 33.4C203.207 34.168 204.855 34.552 206.775 34.552ZM239.77 37.72C237.658 37.752 235.77 37.496 234.106 36.952C232.442 36.376 230.986 35.592 229.738 34.6C228.522 33.576 227.514 32.392 226.714 31.048C225.914 29.704 225.306 28.248 224.89 26.68C224.506 25.08 224.314 23.448 224.314 21.784C224.314 19.704 224.618 17.656 225.226 15.64C225.834 13.624 226.746 11.8 227.962 10.168C229.21 8.536 230.762 7.24 232.618 6.28C234.474 5.32 236.65 4.84 239.146 4.84C241.386 4.84 243.29 5.176 244.858 5.848C246.426 6.52 247.61 7.16 248.41 7.768L247.162 12.376C245.434 10.872 243.578 9.752 241.594 9.016C239.61 8.28 237.386 8.056 234.922 8.344C233.514 9.144 232.378 10.232 231.514 11.608C230.682 12.952 230.09 14.424 229.738 16.024C229.386 17.624 229.21 19.176 229.21 20.68C229.21 23.176 229.642 25.448 230.506 27.496C231.402 29.544 232.714 31.144 234.442 32.296C236.202 33.448 238.362 33.928 240.922 33.736L248.314 31.144L249.178 33.496L239.77 37.72ZM244.714 15.208L244.33 9.928L248.41 7.768C248.474 8.28 248.49 8.952 248.458 9.784C248.458 10.616 248.394 11.496 248.266 12.424C248.138 13.352 247.914 14.28 247.594 15.208H244.714ZM255.639 37V5.8H260.103V37H255.639ZM259.287 23.224V19.864H277.719V23.224H259.287ZM275.607 37V5.8H280.071V37H275.607ZM258.567 8.824L251.943 8.056L251.991 5.8H258.711L258.567 8.824ZM259.431 9.016L259.383 5.8H263.895L264.183 7.336C263.479 7.656 262.711 7.96 261.879 8.248C261.047 8.504 260.231 8.76 259.431 9.016ZM278.535 8.824L271.911 8.056L271.959 5.8H278.679L278.535 8.824ZM279.399 9.016L279.351 5.8H283.863L284.151 7.336C283.447 7.656 282.679 7.96 281.847 8.248C281.015 8.504 280.199 8.76 279.399 9.016ZM251.847 37L251.559 35.464C252.295 35.112 253.063 34.808 253.863 34.552C254.695 34.264 255.511 34.008 256.311 33.784L256.359 37H251.847ZM257.991 37L258.135 33.976L264.759 34.744L264.711 37H257.991ZM271.815 37L271.527 35.464C272.263 35.112 273.031 34.808 273.831 34.552C274.663 34.264 275.479 34.008 276.279 33.784L276.327 37H271.815ZM277.959 37L278.103 33.976L284.727 34.744L284.679 37H277.959ZM105.217 87V55.8H109.681V87H105.217ZM101.425 87L101.137 85.464C101.873 85.112 102.641 84.808 103.441 84.552C104.273 84.264 105.089 84.008 105.889 83.784L105.937 87H101.425ZM104.929 87L108.529 83.832L123.937 83.208L124.753 87H104.929ZM124.753 87L121.009 85.08L122.641 77.256L125.329 77.448C125.361 78.44 125.345 79.528 125.281 80.712C125.249 81.896 125.185 83.048 125.089 84.168C125.025 85.288 124.913 86.232 124.753 87ZM108.145 58.824L101.521 58.056L101.569 55.8H108.289L108.145 58.824ZM109.009 59.016L108.961 55.8H113.473L113.761 57.336C113.057 57.656 112.289 57.96 111.457 58.248C110.625 58.504 109.809 58.76 109.009 59.016ZM127.77 87L140.394 56.424L143.13 57.624L131.61 87H127.77ZM152.154 87L139.914 55.944L143.706 54.648L157.002 87H152.154ZM134.73 77.352V74.424H148.698V77.352H134.73ZM125.322 87L125.034 85.464C125.77 85.112 126.538 84.808 127.338 84.552C128.17 84.264 128.986 84.008 129.786 83.784L129.834 87H125.322ZM130.986 87L131.13 83.976L137.754 84.744L137.706 87H130.986ZM146.49 87L146.202 85.464C146.938 85.112 147.706 84.808 148.506 84.552C149.338 84.264 150.154 84.008 150.954 83.784L153.498 87H146.49ZM152.634 87L152.778 83.976L159.402 84.744L159.354 87H152.634ZM174.966 87.864C172.342 87.864 170.022 87.32 168.006 86.232C166.022 85.112 164.47 83.48 163.35 81.336C162.23 79.192 161.67 76.552 161.67 73.416V55.8H166.134V73.896C166.134 76.104 166.486 77.976 167.19 79.512C167.894 81.048 168.918 82.232 170.262 83.064C171.638 83.864 173.27 84.264 175.158 84.264C176.086 84.264 176.902 84.184 177.606 84.024C178.342 83.832 179.046 83.592 179.718 83.304C180.774 82.568 181.574 81.416 182.118 79.848C182.694 78.248 182.982 76.264 182.982 73.896V55.8H186.534V72.936C186.534 75.56 186.278 77.832 185.766 79.752C185.254 81.64 184.502 83.176 183.51 84.36C182.518 85.544 181.302 86.424 179.862 87C178.422 87.576 176.79 87.864 174.966 87.864ZM164.598 58.824L157.974 58.056L158.022 55.8H164.742L164.598 58.824ZM165.462 59.016L165.414 55.8H169.926L170.214 57.336C169.51 57.656 168.742 57.96 167.91 58.248C167.078 58.504 166.262 58.76 165.462 59.016ZM185.334 58.824L178.71 58.056L178.758 55.8H185.478L185.334 58.824ZM185.862 59.016L185.814 55.8H190.326L190.614 57.336C189.91 57.656 189.142 57.96 188.31 58.248C187.478 58.504 186.662 58.76 185.862 59.016ZM199.035 74.568L199.179 71.112C200.203 71.336 201.195 71.496 202.155 71.592C203.147 71.688 203.995 71.736 204.699 71.736C206.331 71.736 207.675 71.528 208.731 71.112C209.787 70.664 210.587 70.088 211.131 69.384C211.707 68.648 212.107 67.88 212.331 67.08C212.555 66.248 212.667 65.448 212.667 64.68C212.667 63.272 212.363 62.008 211.755 60.888C211.179 59.736 210.235 58.856 208.923 58.248L200.043 59.016L192.795 55.8L206.187 55.416C208.747 55.416 210.859 55.864 212.523 56.76C214.219 57.656 215.483 58.808 216.315 60.216C217.147 61.624 217.563 63.112 217.563 64.68C217.563 66.184 217.163 67.688 216.363 69.192C215.563 70.696 214.347 71.96 212.715 72.984C211.115 73.976 209.083 74.488 206.619 74.52L199.035 74.568ZM192.363 87L192.075 85.464C192.811 85.112 193.579 84.808 194.379 84.552C195.211 84.264 196.027 84.008 196.827 83.784L196.875 87H192.363ZM198.987 87L199.131 83.976L205.755 84.744L205.707 87H198.987ZM196.155 87V55.8H200.619V87H196.155ZM213.771 87L213.915 84.12L220.539 84.744L220.491 87H213.771ZM197.355 58.392L192.747 58.104L192.795 55.8H197.259L197.355 58.392ZM213.195 87L205.275 72.648L209.739 72.216L218.859 87H213.195ZM226.296 87V55.8H230.76V87H226.296ZM222.504 87L222.216 85.464C222.952 85.112 223.72 84.808 224.52 84.552C225.352 84.264 226.168 84.008 226.968 83.784L227.016 87H222.504ZM228.648 87L228.792 83.976L235.416 84.744L235.368 87H228.648ZM229.224 58.824L222.6 58.056L222.648 55.8H229.368L229.224 58.824ZM230.088 59.016L230.04 55.8H234.552L234.84 57.336C234.136 57.656 233.368 57.96 232.536 58.248C231.704 58.504 230.888 58.76 230.088 59.016ZM261.212 87.528L243.5 59.208L243.644 55.8H246.908L264.092 83.496L264.428 85.848L261.212 87.528ZM237.644 87L237.356 85.464C238.092 85.112 238.86 84.808 239.66 84.552C240.492 84.264 241.308 84.008 242.108 83.784L242.156 87H237.644ZM242.54 87L242.684 83.976L249.308 84.744L249.26 87H242.54ZM241.436 87V55.8H246.908L243.884 58.2L245.036 66.936V87H241.436ZM244.94 58.824L238.316 58.056L238.364 55.8H245.084L244.94 58.824ZM261.212 87.528L263.708 84.6L262.508 75.864V55.8H266.156V87L261.212 87.528ZM264.476 58.824L257.852 58.056L257.9 55.8H264.62L264.476 58.824ZM265.484 59.016L265.436 55.8H269.948L270.236 57.336C269.532 57.656 268.764 57.96 267.932 58.248C267.1 58.504 266.284 58.76 265.484 59.016ZM272.472 87L272.184 85.464C272.92 85.112 273.688 84.808 274.488 84.552C275.32 84.264 276.136 84.008 276.936 83.784L276.984 87H272.472ZM294.84 87L291.24 85.08L292.872 78.216L295.416 78.408C295.448 79.24 295.432 80.2 295.368 81.288C295.336 82.376 295.272 83.432 295.176 84.456C295.08 85.448 294.968 86.296 294.84 87ZM277.464 58.392L272.856 58.104L272.904 55.8H277.368L277.464 58.392ZM291.768 63.72L291 57.96L294.84 55.8C294.904 56.312 294.92 57.016 294.888 57.912C294.888 58.776 294.84 59.72 294.744 60.744C294.68 61.736 294.552 62.728 294.36 63.72H291.768ZM276.264 87V55.8H280.728V87H276.264ZM291.72 73.368L280.2 72.888V70.056L291.72 69.192V73.368ZM294.024 59.496L279.576 58.488L275.976 55.8H294.84L294.024 59.496ZM275.976 87L279.576 83.928L294.024 83.304L294.84 87H275.976Z" fill="black"/>
</svg>
